<svg width="200" height="214" viewBox="0 0 200 214" fill="none" xmlns="http://www.w3.org/2000/svg">
<path d="M105.997 194.005C101.223 193.736 96.4499 193.085 91.8158 192.055L92.2522 190.077C96.7842 191.08 101.446 191.72 106.108 191.98L105.997 194.005ZM120.308 193.652L120.094 191.637C124.728 191.144 129.353 190.272 133.839 189.036L134.378 190.987C129.79 192.25 125.053 193.141 120.308 193.643V193.652ZM78.1362 187.82C73.7156 186.037 69.4065 183.882 65.3296 181.412L66.379 179.685C70.3631 182.108 74.57 184.216 78.8884 185.953L78.1362 187.829V187.82ZM147.825 186.083L146.98 184.244C151.205 182.294 155.301 179.982 159.155 177.372L160.288 179.053C156.341 181.728 152.153 184.096 147.825 186.083ZM53.7303 173.007C50.1084 169.905 46.7187 166.488 43.6447 162.847L45.1956 161.538C48.1953 165.095 51.5107 168.438 55.049 171.466L53.7303 173.007ZM171.451 170.091L170.058 168.624C173.438 165.429 176.586 161.928 179.419 158.223L181.026 159.448C178.137 163.237 174.915 166.822 171.451 170.091ZM35.3144 151.192C32.872 147.106 30.7453 142.778 28.9993 138.349L30.8846 137.606C32.5933 141.933 34.6643 146.15 37.0603 150.152L35.3237 151.192H35.3144ZM188.752 147.385L186.969 146.428C189.161 142.314 191.027 137.996 192.513 133.575L194.436 134.225C192.913 138.748 191 143.169 188.761 147.375L188.752 147.385ZM24.8574 124.65C23.8637 120.007 23.2322 115.234 23 110.451L25.0245 110.349C25.2567 115.011 25.8604 119.682 26.8355 124.214L24.8574 124.641V124.65ZM197.881 120.341L195.885 120.016C196.627 115.438 197.008 110.748 197.008 106.077C197.008 103.226 196.869 100.347 196.59 97.5235L198.606 97.3285C198.893 100.217 199.033 103.17 199.033 106.077C199.033 110.859 198.643 115.661 197.881 120.341ZM25.461 96.3719L23.4458 96.1491C23.9751 91.4035 24.9038 86.6764 26.1947 82.098L28.1449 82.6459C26.8819 87.1129 25.9811 91.7378 25.461 96.3719ZM194.083 83.7511C192.876 79.2562 191.297 74.8264 189.374 70.5823L191.223 69.7465C193.191 74.0927 194.817 78.6247 196.042 83.2217L194.083 83.7418V83.7511ZM33.0391 69.5329L31.2096 68.6692C33.2341 64.3601 35.6302 60.181 38.3326 56.2434L40.0043 57.3856C37.3668 61.2304 35.0172 65.3073 33.0391 69.5236V69.5329ZM182.586 58.3608C180.004 54.4881 177.079 50.8012 173.902 47.393L175.379 46.0092C178.629 49.4918 181.62 53.2716 184.267 57.2371L182.586 58.3608ZM48.8361 46.5478L47.3781 45.1455C50.6842 41.7001 54.2782 38.5054 58.0858 35.6451L59.3024 37.261C55.5877 40.0563 52.0679 43.1767 48.8361 46.5478ZM163.566 37.9668C159.879 35.1157 155.932 32.5432 151.846 30.333L152.812 28.5499C157 30.8159 161.04 33.4441 164.811 36.3601L163.575 37.9575L163.566 37.9668ZM71.1153 29.785L70.1773 27.9927C74.4029 25.7824 78.842 23.9065 83.3647 22.4113L83.9962 24.3336C79.5757 25.7917 75.248 27.6212 71.1153 29.785ZM139.03 24.7051C134.638 23.1914 130.078 22.0212 125.481 21.2411L125.824 19.2444C130.523 20.0431 135.195 21.2411 139.699 22.792L139.04 24.7051H139.03ZM97.5922 21.0554L97.2765 19.0587C101.771 18.3622 106.359 18 110.928 18H111.56L111.541 20.0245H110.965C106.545 19.9874 101.994 20.3681 97.5922 21.0554Z" fill="#69649B"/>
<path d="M87.9691 193.722C87.9691 193.722 100.6 155.583 109.453 116.72C120.035 70.248 84.6755 85.3786 80.4301 95.0141C80.4301 95.0141 97.079 55.3159 80.7279 46.2294C69.1887 39.8174 61.5037 58.1715 61.5037 58.1715C61.5037 58.1715 59.4715 1.57331 34.3959 0.0374742C9.31443 -1.49252 21.5836 44.2205 36.4456 65.1383C36.4456 65.1383 4.66605 36.9384 2.2893 57.243C0.262926 74.546 30.7519 98.4595 38.4603 107.861C38.4603 107.861 5.53032 82.8968 0.455635 96.1412C-4.61905 109.386 33.2163 167.356 87.975 193.716L87.9691 193.722Z" fill="#5C4EA0"/>
<path d="M43.0034 36.8041C43.0034 36.8041 56.9427 122.717 80.9906 173.762" stroke="white" stroke-width="2" stroke-linecap="round" stroke-linejoin="round"/>
<path d="M27.3181 73.6992C27.3181 73.6992 49.1936 91.3759 57.4976 104.982" stroke="white" stroke-width="2" stroke-linecap="round" stroke-linejoin="round"/>
<path d="M70.9871 67.8829C70.9871 67.8829 62.7765 93.8695 59.1968 110.799" stroke="white" stroke-width="2" stroke-linecap="round" stroke-linejoin="round"/>
<path d="M27.511 109.794C27.511 109.794 57.8598 128.54 69.9363 146.257C69.9363 146.257 74.4971 114.618 88.635 100.03" stroke="white" stroke-width="2" stroke-linecap="round" stroke-linejoin="round"/>
<path d="M88.8267 195.329C88.8267 195.329 120.961 183.252 151.547 168.273C188.12 150.365 159.079 134.977 150.393 137.328C150.393 137.328 185.715 127.085 182.981 111.336C181.049 100.221 164.725 104.965 164.725 104.965C164.725 104.965 201.261 73.2313 188.819 55.7389C176.376 38.2465 152.571 70.9432 146.64 92.0481C146.64 92.0481 148.323 55.7813 133.554 65.1065C120.963 73.0473 121.434 106.154 119.326 116.326C119.326 116.326 118.248 81.0332 106.717 84.7716C95.1884 88.5044 76.9616 144.773 88.8324 195.331L88.8267 195.329Z" fill="#FAB317"/>
<path d="M178.357 70.1656C178.357 70.1656 115.471 140.35 88.827 195.329" stroke="white" stroke-width="2" stroke-linecap="round" stroke-linejoin="round"/>
<path d="M136.605 82.0518C136.605 82.0518 136.593 112.504 130.784 128.752" stroke="white" stroke-width="2" stroke-linecap="round" stroke-linejoin="round"/>
<path d="M171.214 114.882C171.214 114.882 143.74 125.645 127.043 134.145" stroke="white" stroke-width="2" stroke-linecap="round" stroke-linejoin="round"/>
<path d="M106.327 106.769C106.327 106.769 111.177 145.088 104.471 167.311C104.471 167.311 134.23 149.63 156.131 151.612" stroke="white" stroke-width="2" stroke-linecap="round" stroke-linejoin="round"/>
</svg>
